mtllib tvBottom.mtl
o tvBottom.obj
v 1.000000 -3.396852 -0.590021
v 1.000000 -3.396852 0.590021
v 1.000000 -3.922777 0.590021
v 1.000000 -3.922777 -0.590021
v 1.000000 -3.966605 3.001107
v 1.000000 -3.966605 -3.001107
v 1.000000 -4.185740 3.748431
v 1.000000 -4.185740 -3.748431
v 1.000000 -4.339136 3.748431
v 1.000000 -4.339136 -3.748431
v 0.000000 -3.396852 0.590021
v 0.000000 -3.922777 0.590021
v 0.000000 -3.966605 3.001107
v 0.000000 -3.966605 -3.001107
v 0.000000 -3.922777 -0.590021
v 0.000000 -4.185740 3.748431
v 0.000000 -4.339136 3.748431
v 0.000000 -4.339136 -3.748431
v 0.000000 -3.396852 -0.590021
v 0.000000 -4.185740 -3.748431
vn 0.577350 0.577350 -0.577350
vn 0.577350 0.577350 0.577350
vn 0.814035 0.406950 0.414415
vn 0.814035 0.406950 -0.414415
vn 0.710261 0.695854 0.106381
vn 0.710261 0.695854 -0.106381
vn 0.780705 0.374581 0.500190
vn 0.780705 0.374581 -0.500190
vn 0.577350 -0.577350 0.577350
vn 0.577350 -0.577350 -0.577350
vn -0.577350 0.577350 0.577350
vn -0.814035 0.406950 0.414415
vn -0.710261 0.695854 0.106381
vn -0.710261 0.695854 -0.106381
vn -0.814035 0.406950 -0.414415
vn -0.529794 0.508388 0.678867
vn -0.577350 -0.577350 0.577350
vn -0.577350 -0.577350 -0.577350
vn -0.577350 0.577350 -0.577350
vn -0.529794 0.508388 -0.678867
vt 0.452332 0.101576
vt 0.544906 0.101576
vt 0.544906 0.060320
vt 0.452332 0.060320
vt 0.734053 0.056882
vt 0.263184 0.056882
vt 0.792680 0.039692
vt 0.204557 0.039692
vt 0.792680 0.027659
vt 0.204557 0.027659
vt 0.544906 0.102352
vt 0.544906 0.061096
vt 0.734053 0.057657
vt 0.263184 0.057657
vt 0.452332 0.061096
vt 0.792680 0.040467
vt 0.792680 0.028434
vt 0.204557 0.028434
vt 0.452332 0.102352
vt 0.204557 0.040467
vt 0.544906 0.101576
vt 0.452332 0.101576
vt 0.452332 0.102352
vt 0.544906 0.102352
g Generic
usemtl Default
f 1/1/1 2/2/2 3/3/3 4/4/4 
f 4/4/4 3/3/3 5/5/5 6/6/6 
f 6/6/6 5/5/5 7/7/7 8/8/8 
f 8/8/8 7/7/7 9/9/9 10/10/10 
f 11/11/11 12/12/12 3/3/3 2/2/2 
f 12/12/12 13/13/13 5/5/5 3/3/3 
f 14/14/14 15/15/15 4/4/4 6/6/6 
f 13/13/13 16/16/16 7/7/7 5/5/5 
f 16/16/16 17/17/17 9/9/9 7/7/7 
f 17/17/17 18/18/18 10/10/10 9/9/9 
f 15/15/15 19/19/19 1/1/1 4/4/4 
f 20/20/20 14/14/14 6/6/6 8/8/8 
f 18/18/18 20/20/20 8/8/8 10/10/10 
f 17/17/17 16/16/16 13/13/13 14/14/14 20/20/20 18/18/18 
f 12/12/12 11/11/11 19/19/19 15/15/15 
f 13/13/13 12/12/12 15/15/15 14/14/14 
f 2/21/2 1/22/1 19/23/19 11/24/11 
